<svg xmlns="http://www.w3.org/2000/svg" version="1.1" xmlns:xlink="http://www.w3.org/1999/xlink" xmlns:svgjs="http://svgjs.dev/svgjs" viewBox="0 0 18.381846200286127 6.157823972015292"><g transform="matrix(0.7506981286497231,0,0,0.7506981286497231,6.013942651110085,2.3429556918592818)"><g transform="matrix(1,0,0,1,0,0)" clip-path="url(#SvgjsClipPath59136)"><g clip-path="url(#SvgjsClipPath59134acd6b3f3-9503-4522-a12f-67f857c9480f)"><path d=" M -0.40655337345262454 2.4962873230207028 C -0.41362277684535176 2.4827677758533118 -0.4257741186174706 2.472610979670673 -0.44033334043357764 2.468052067514268 C -0.4548925622496842 2.4634931553578614 -0.47066660123887827 2.4649057096137676 -0.48418417816030956 2.4719788796324793 C -0.49348082422100914 2.4768367582092794 -0.6824618261106377 2.5779568346236093 -0.835665981069952 2.8192505211088967 C -0.8645469091031552 2.716570079325067 -0.9055797847779354 2.6177036165668945 -0.9578940161630833 2.524748776329483 C -0.9022474933284457 2.493848858480191 -0.8561071721009581 2.4665875869374436 -0.8376091325006727 2.4555192439840288 C -0.8145368150563637 2.441747149077009 -0.8040856400091285 2.4138272423838254 -0.8124434164224268 2.388290014581962 C -0.8179680626470223 2.3714112678406103 -0.9390149664783438 2.01745289938201 -1.3899785024391607 1.8542853307141995 L -0.9721818943301419 1.7390678811750386 C -0.9364648330782392 1.7291893834411636 -0.9154891020496465 1.6922581186923256 -0.9252986034379669 1.6565220463778845 L -1.0031199131878799 1.3743840788390331 C -0.9502693875345396 1.3635666133861153 -0.9036861228610569 1.3326454346211807 -0.8731954743887602 1.2881424462226674 C -0.842714667632368 1.2402494786066862 -0.836237496196635 1.1799546327416985 -0.8537639600815599 1.1089343529993059 C -0.8653847676574342 1.0618605570649033 -0.887731009110714 0.9952409437979641 -0.9474352893447966 0.9600737130027772 C -1.0030818121794343 0.9273068457396563 -1.0675868194776479 0.9357462191103321 -1.120432918191543 0.948891067024026 L -1.2221626107410004 0.5798637497252346 C -1.2320502922885819 0.5441632024951653 -1.2689608615165953 0.5231943865048281 -1.304689395033931 0.5329804588330593 L -1.3975796536240352 0.5585843365084286 L -1.5937998471183077 -0.15293294570687033 C -1.6037214548008403 -0.1885836205969662 -1.6405952174463296 -0.20950713903113882 -1.6762885304027937 -0.19974003458215506 L -2.180250569111287 -0.06067135375611743 L -2.3651928641056945 -0.7312491023967378 C -2.375060926658904 -0.7669614422064495 -2.4120013243005363 -0.7879216216623895 -2.4477196483986248 -0.7780752417762447 L -3.1226218614978087 -0.5921804215706999 L -3.1100866297192424 -0.6024295928425367 C -3.0813901403775503 -0.6258821669463999 -3.077126488822353 -0.6681520084646257 -3.10056137760787 -0.6968629422746832 L -3.3904719508696015 -1.0514499773726338 C -3.413969615240598 -1.0800987251684266 -3.4562345793442324 -1.0842936741978777 -3.4849053003017483 -1.0608228254502243 L -3.9117889989250156 -0.7119128406106516 C -3.9404677620196855 -0.6884426597407977 -3.944729411500972 -0.6461841434843596 -3.9213142510363883 -0.6174604406742823 L -3.631403677774656 -0.2629305570889998 C -3.6201422123356766 -0.24916452852715953 -3.6038745577108786 -0.24043454032497247 -3.5861777807498596 -0.23866021470922283 C -3.583949768606751 -0.23843245611245956 -3.5817116263563435 -0.23831800565647288 -3.5794720032634535 -0.23831730563321352 C -3.5639769207826686 -0.2383440071313585 -3.5489678416425026 -0.24372843014128365 -3.536989378846733 -0.2535577090114093 L -3.3619723965523756 -0.39666509673266903 L -3.175086950127248 0.28071368191547097 C -3.1670684706592525 0.3098008108429551 -3.14062070685107 0.32995816928915644 -3.1104485892994744 0.3299782858354896 C -3.104413550704455 0.32997047665236745 -3.0984056896983 0.32916985551615263 -3.0925792163385397 0.3275969728076462 L -2.987439483533211 0.2986211558848513 L -2.808479046864745 0.9476527842495472 L -3.0701758233725918 1.019797043741082 C -3.087336678250999 1.0245272539202834 -3.101914499876089 1.0358829671988072 -3.1107003613045374 1.0513645196874073 C -3.1194862227329856 1.0668460721760065 -3.1217599398784377 1.0851844286383363 -3.1170210132563216 1.1023428785382356 L -2.9574539898866106 1.6809257422872208 C -2.9990031269301944 1.6955894491822523 -3.034513715110241 1.7236227135115567 -3.0584216622671585 1.7606330519551854 C -3.0876832367532945 1.8079354539402606 -3.0937984486087955 1.8673158756025563 -3.0765767927914345 1.9370026200493582 C -3.0405332388020008 2.083119987437811 -2.9573015858528287 2.1137912992364303 -2.893863406791088 2.1137912992364303 C -2.8756794135545976 2.1135862763257793 -2.8575783717339993 2.111304471265768 -2.8399123788322744 2.1069902692289104 L -2.8200427029279513 2.179001175190886 C -2.8120237744617538 2.208098820409302 -2.785567666474738 2.228264392407655 -2.7553852915959554 2.228284829615127 C -2.7493503414023746 2.228275701846716 -2.7433426519815 2.227475103576343 -2.7375159186350206 2.2259035165872842 L -2.244927030947506 2.0901305729917805 C -2.242972722560255 2.177124891014134 -2.2670968034069974 2.2627136266915224 -2.3141946643014046 2.335882077465188 C -2.3467710265223003 2.3816032875997784 -2.3852911460606903 2.4049401552726404 -2.4287453461927715 2.405359266365541 C -2.446404004408397 2.4055470479304777 -2.4629981852163727 2.413834341109128 -2.473756842181978 2.4278384395159818 C -2.4845154991475837 2.441842537922836 -2.488246637423882 2.460011871209444 -2.4838775054133952 2.47712251577262 C -2.4743522533020226 2.514061443460523 -2.4423855072162572 2.5733085115932592 -2.404665508855222 2.6348606907369483 C -2.5157489989780473 2.635717963426971 -2.642796811639533 2.5744324913424013 -2.75847147328004 2.460891486174842 C -2.7732780783733495 2.446370082243662 -2.7947559790513656 2.4409448640799543 -2.814682533738946 2.4466928328346174 C -2.834609088426526 2.452440801589281 -2.8498978236677486 2.468471640131989 -2.854695570109125 2.488648070827381 C -2.893349043177074 2.6509774173093907 -2.9435471218040066 2.9084449818797875 -2.944042434913798 2.911035850454081 C -2.9500974102505633 2.942213584928312 -2.9297428152023457 2.9724001230392 -2.898568881334106 2.978474635402598 C -2.894933221650508 2.9791696857564873 -2.8912401407947916 2.97952049654589 -2.8875386393891365 2.979522413134849 C -2.860028361315374 2.979497633681848 -2.8363904930226482 2.9599884065740345 -2.8311491468898122 2.932982031318683 C -2.830730035796911 2.9308674253499585 -2.7972201988691032 2.7589937762523533 -2.7641675740426406 2.608952004994015 C -2.622946186239433 2.719978343604172 -2.4696086777505593 2.7676808061779257 -2.334978764408421 2.742705595141907 C -2.2966300994080355 2.7996094512552454 -2.262472545336654 2.847159509795217 -2.2490609903638417 2.8656003978828335 C -2.234534527669179 2.8856437320033477 -2.2088098574086654 2.894139319705731 -2.1852037002092004 2.886689306057412 C -1.9470569374125808 2.7949176947513252 -1.7701851524506305 2.5906645634458347 -1.7133989126287008 2.341844885286909 C -1.666039359130957 2.3332150068740054 -1.5554321316137 2.349636541514011 -1.4478158332594142 2.4131318720884196 C -1.4047045422033424 2.438564295225784 -1.3051275566310547 2.507127059923443 -1.3119476371427976 2.593730652120041 C -1.3132238853150788 2.6097179505429935 -1.307759888985259 2.6255110295981705 -1.2968767175726215 2.6372914837602544 C -1.2859935461599843 2.6490719379223373 -1.2706818765401486 2.6557674121690478 -1.254643720440781 2.655759093869298 C -1.2515367024262507 2.6557499417308783 -1.248435001813451 2.6555015509220508 -1.245366124884304 2.6550161242046113 C -1.2034550155942654 2.648138892180201 -1.1313298066069533 2.6157911360099804 -1.0588235875351857 2.578814107313632 C -0.9878119882735481 2.7066615384805073 -0.9388950038030845 2.8455806218305297 -0.9141350079634383 2.9897144328940164 C -0.9096496949460087 3.0143650636884405 -0.8897220241797852 3.03327554476358 -0.8648704040434203 3.0364643702566325 C -0.8624440618100313 3.036773493515948 -0.860000951650334 3.0369325501669695 -0.8575550104218861 3.036940632862201 C -0.8351687000111814 3.036918525003323 -0.8148278847078894 3.0239128886201434 -0.8054137803642334 3.003602250472398 C -0.6649734632341584 2.700851637364536 -0.43305262482646256 2.575213562015534 -0.43088086734506925 2.574070531762169 C -0.4173251429041809 2.5669970497016035 -0.40714142665493647 2.5548199895706434 -0.40257726724840204 2.5402268314994734 C -0.3980131078418663 2.5256336734283025 -0.3994437222238658 2.5098241126321224 -0.40655337345262454 2.4962873230207028 Z M -1.0155408419411103 1.0757102736348383 C -1.0088541149589263 1.0796727785131695 -0.9958426205747917 1.0934081920577685 -0.9840694089651354 1.1410916041272987 C -0.9783542576983115 1.1644856233128298 -0.9739916922313032 1.1965476219197093 -0.9864888230014244 1.2162077422775819 C -0.9997246278266303 1.2320145099736814 -1.0182433240520607 1.2424854248350634 -1.038611002554854 1.2456788723101684 L -1.0847322732781195 1.0783011422091318 C -1.0420972448276165 1.0681472234584088 -1.0234277506893261 1.0711000516129339 -1.0155408419411103 1.0757102736348383 Z M -1.705302448334034 -0.052574889461450613 L -1.5269706783049193 0.5942659309176292 L -2.3072793312685502 0.8095366286346464 L -2.485668252810333 0.16263865674289835 Z M -2.476733566329866 -0.6311196522019904 L -2.309622543287947 -0.02514216338069808 L -2.788742724489982 0.10697308340403766 L -2.9558346970276768 -0.49900440541725466 Z M -3.5699277006478587 -0.3997703289209764 L -3.7748920755803708 -0.6504749644922992 L -3.4519098269879542 -0.914553054027989 L -3.2469835530638873 -0.6639055699693344 Z M -3.063546247903077 0.18035562567005092 L -3.2300857558183127 -0.42341200466140283 L -3.085301923725451 -0.46341806352916715 L -2.918419506734206 0.14149259705565131 Z M -2.8574769437256453 0.2650922684528205 L -2.6150402269869937 0.19822499863098586 L -2.4366513054452104 0.8450467685058434 L -2.6790689716796394 0.9119711898403458 Z M -2.8393027626971463 1.9665118510903898 C -2.85658354077293 1.9741019166839826 -2.8750926711160507 1.9785097744330593 -2.893939608807979 1.979523345474525 C -2.9058080729387488 1.9795233454745245 -2.9279257083413555 1.9795233454745245 -2.946366596428973 1.9047691669044733 C -2.952081747695796 1.8819085618371796 -2.956291909129023 1.8504371288612047 -2.9444615460066985 1.8311580185877867 C -2.932935990951938 1.812583776970611 -2.904245931592484 1.8027727672958966 -2.882223548710991 1.7978577372064288 C -2.8709242033033853 1.795198224170985 -2.859368307019089 1.7937800876452177 -2.847761186572045 1.7936285252689803 C -2.827758157138163 1.7936285252689799 -2.7905144213826967 1.7936285252689799 -2.7726259979175394 1.8706687643457602 C -2.7673109072393935 1.8931102583201533 -2.757652301598462 1.934849913072188 -2.8393027626971463 1.9665880531072806 Z M -2.7085782027206715 2.078585967432798 L -2.716198404409769 2.0506579282422543 C -2.6495761088833714 2.0032098803371663 -2.619797952038958 1.9191227627619325 -2.641710932898837 1.8403213111189278 C -2.666267032841955 1.734571962178471 -2.7324103835033253 1.6710575810998392 -2.823605147217605 1.6612465714251252 L -2.9697225146060586 1.1313186954610308 L -2.818899672674587 1.089712394238556 L -2.557717259780755 2.037017767218768 Z M -2.4284214876209846 2.0013361728095673 L -2.68962295101904 1.0541070018462455 L -1.3337033129651727 0.680221805970654 L -1.0725209000713396 1.6274890779424211 Z M -1.205531520554545 2.521300635065167 C -1.227782509486711 2.4438222343912637 -1.2907444259428829 2.372078035488406 -1.3893688863040334 2.313897795592143 C -1.4808113065732087 2.259908666624884 -1.6008294831765015 2.222188668263849 -1.694786570003079 2.2251414964183747 C -1.6924624084879043 2.2014045681568346 -1.6907478631078572 2.17715327628128 -1.6901953984853977 2.1517970551608068 C -1.6898530590099314 2.1365456946334294 -1.6955839873729888 2.1217831232103546 -1.7061271872438475 2.1107576014206324 C -1.7166703871147062 2.0997320796309102 -1.7311620183871508 2.0933469658506096 -1.7464134364467174 2.0930071991294157 C -1.7617697915340989 2.092287252915919 -1.7767495939910534 2.0978959772003956 -1.7878568946944617 2.108524421828098 C -1.7989641953978701 2.1191528664558 -1.8052271920280547 2.1338711252848515 -1.8051842419738855 2.1492442875949593 C -1.814042726437462 2.5558773002294486 -2.0807497855558905 2.7155586266244964 -2.1819270134828885 2.761565594322425 C -2.241299751208736 2.678971277758759 -2.296396359376808 2.593385548278983 -2.3469996325729703 2.5051458074842836 C -2.2955661034701604 2.4842875860141485 -2.251532597730928 2.448546017932952 -2.220542385542392 2.4025016907321293 C -2.1487029341184214 2.301762624402254 -2.122813298879711 2.162465337525544 -2.132490955024865 2.058944897579148 L -1.604696735533718 1.9134180958215992 C -1.1694308150524426 2.001450475834904 -0.9897845602319588 2.2762730497522217 -0.9394531280754661 2.3818890451631196 C -1.0257087718825026 2.4328927696805924 -1.1145176752351524 2.47944956715665 -1.2055315205545463 2.521376837082057 Z" fill="#414042" transform="matrix(1,0,0,1,0,0)" fill-rule="nonzero"></path></g><g clip-path="url(#SvgjsClipPath59134acd6b3f3-9503-4522-a12f-67f857c9480f)"><path d=" M -1.205531520554545 2.521376837082057 C -1.227782509486711 2.4438984364081535 -1.2907444259428829 2.3721542375052964 -1.3893688863040334 2.313973997609033 C -1.4808113065732087 2.259984868641774 -1.6008294831765015 2.2222648702807395 -1.694786570003079 2.2252176984352654 C -1.6924624084879043 2.201480770173725 -1.6907478631078572 2.1772294782981705 -1.6901953984853977 2.1518732571776975 C -1.6898530590099314 2.136621896650319 -1.6955839873729888 2.1218593252272444 -1.7061271872438475 2.110833803437523 C -1.7166703871147062 2.0998082816478 -1.7311620183871508 2.0934231678675004 -1.7464134364467174 2.0930834011463064 C -1.7617697915340989 2.092363454932809 -1.7767495939910534 2.0979721792172854 -1.7878568946944617 2.1086006238449877 C -1.7989641953978701 2.11922906847269 -1.8052271920280547 2.133947327301742 -1.8051842419738855 2.149320489611849 C -1.814042726437462 2.555953502246339 -2.0807497855558905 2.715634828641387 -2.1819270134828885 2.761641796339316 C -2.241299751208736 2.679047479775649 -2.296396359376808 2.5934617502958734 -2.3469996325729703 2.5052220095011735 C -2.2955661034701604 2.4843637880310387 -2.251532597730928 2.4486222199498417 -2.220542385542392 2.402577892749019 C -2.1487029341184214 2.301838826419144 -2.122813298879711 2.162541539542434 -2.132490955024865 2.059021099596038 L -1.604696735533718 1.91349429783849 C -1.1694308150524426 2.0015266778517944 -0.9897845602319588 2.2763492517691115 -0.9394531280754661 2.3819652471800095 C -1.0257103656099393 2.432943059771764 -1.114519241586751 2.479474408980492 -1.2055315205545454 2.5213768370820575 Z" fill="#2d9fc4" transform="matrix(1,0,0,1,0,0)" fill-rule="nonzero"></path></g><g clip-path="url(#SvgjsClipPath59134acd6b3f3-9503-4522-a12f-67f857c9480f)"><path d=" M -1.0155408419411103 1.0757102736348383 C -1.0088541149589263 1.079672778513169 -0.9958426205747917 1.093408192057768 -0.9840694089651354 1.1410916041272987 C -0.9783542576983115 1.1644856233128293 -0.9739916922313032 1.1965476219197093 -0.9864888230014244 1.2162077422775814 C -0.9997246278266303 1.232014509973681 -1.0182433240520607 1.2424854248350634 -1.038611002554854 1.245678872310168 L -1.0847322732781195 1.0783011422091313 C -1.0420972448276165 1.0681472234584088 -1.0234277506893261 1.0711000516129339 -1.0155408419411103 1.0757102736348383 Z M -2.8393027626971463 1.9665880531072806 C -2.85658354077293 1.9741781187008733 -2.8750926711160507 1.9785859764499496 -2.893939608807979 1.9795995474914148 C -2.9058080729387488 1.9795995474914148 -2.9279257083413555 1.9795995474914148 -2.946366596428973 1.9048453689213645 C -2.952081747695796 1.8819847638540708 -2.956291909129023 1.8505133308780959 -2.9444615460066985 1.8312342206046779 C -2.932935990951938 1.8126599789875018 -2.904245931592484 1.8028489693127878 -2.882223548710991 1.79793393922332 C -2.8709242033033853 1.7952744261878757 -2.859368307019089 1.7938562896621084 -2.847761186572045 1.7937047272858702 C -2.827758157138163 1.7937047272858702 -2.7905144213826967 1.7937047272858702 -2.7726259979175394 1.8707449663626505 C -2.7673109072393935 1.8931102583201533 -2.757652301598462 1.934849913072188 -2.8393027626971463 1.9665880531072806 Z" fill="#f1d5a5" transform="matrix(1,0,0,1,0,0)" fill-rule="nonzero"></path></g><g clip-path="url(#SvgjsClipPath59134acd6b3f3-9503-4522-a12f-67f857c9480f)"><path d=" M -3.063546247903077 0.18035562567005092 L -3.2300857558183127 -0.42341200466140283 L -3.085301923725451 -0.46341806352916715 L -2.918419506734206 0.14149259705565131 Z M -2.8574769437256453 0.2650922684528205 L -2.6150402269869937 0.19822499863098586 L -2.4366513054452104 0.8450467685058434 L -2.6790689716796394 0.9119711898403458 Z M -2.7085782027206715 2.078700270458134 L -2.716198404409769 2.0507722312675902 C -2.6495761088833714 2.0033241833625026 -2.619797952038958 1.919237065787268 -2.641710932898837 1.8404356141442637 C -2.666267032841955 1.7346862652038069 -2.7324103835033253 1.6711718841251755 -2.823605147217605 1.6613608744504615 L -2.9697225146060586 1.1314329984863667 L -2.818899672674587 1.089826697263892 L -2.557717259780755 2.0371320702441045 Z" fill="#9b8579" transform="matrix(1,0,0,1,0,0)" fill-rule="nonzero"></path></g><g clip-path="url(#SvgjsClipPath59134acd6b3f3-9503-4522-a12f-67f857c9480f)"><path d=" M -1.705302448334034 -0.052574889461450613 L -1.5269706783049193 0.5942659309176292 L -2.3072793312685502 0.8095366286346464 L -2.485668252810333 0.16263865674289835 Z M -2.476733566329866 -0.6311196522019904 L -2.309622543287947 -0.02514216338069808 L -2.788742724489982 0.10697308340403766 L -2.9558346970276768 -0.49900440541725466 Z M -3.5699277006478587 -0.3997703289209764 L -3.7748920755803708 -0.6504749644922992 L -3.4519098269879542 -0.914553054027989 L -3.2469835530638873 -0.6639055699693344 Z M -2.4284214876209846 2.0014695263391262 L -2.68962295101904 1.0541070018462455 L -1.3337033129651727 0.680221805970654 L -1.0725209000713396 1.6274890779424211 Z" fill="#d0b796" transform="matrix(1,0,0,1,0,0)" fill-rule="nonzero"></path></g><g clip-path="url(#SvgjsClipPath59134acd6b3f3-9503-4522-a12f-67f857c9480f)"><path d=" M -1.3529062212216991 1.0872739296980445 L -1.7255340838185895 1.1900323494755307 L -1.7881721417029741 0.9628169856108522 L -1.4155442791060846 0.8600585658333659 Z M -3.598884467066431 -0.7310585973545102 L -3.7065007654207167 -0.6430452678454288 L -3.6334039807180445 -0.5536793525365324 L -3.5257876823637586 -0.6417117325498367 Z M -1.7688549304211114 0.038143611647260434 L -2.114697784080822 0.13351043578632127 L -2.0833597046344066 0.24712764297077205 L -1.737554951983141 0.1517417683274882 Z M -2.5163395646089524 -0.5352765654573609 L -2.6836791937015434 -0.4891362442298728 L -2.6353099634799944 -0.31368110033839214 L -2.4679512838831803 -0.3597642700532121 Z" fill="#ffffff" transform="matrix(1,0,0,1,0,0)" fill-rule="nonzero"></path></g></g><g><path d=" M 0.11325 0.2647499999999998 Q 0.1785 0.14249999999999985 0.2985 0.07424999999999982 Q 0.4185 0.005999999999999783 0.5745 0.005999999999999783 Q 0.7725 0.005999999999999783 0.9075 0.1117499999999998 Q 1.0425 0.2174999999999998 1.0815000000000001 0.3989999999999998 L 0.765 0.3989999999999998 Q 0.7365 0.33899999999999986 0.68625 0.3074999999999998 Q 0.636 0.2759999999999998 0.5700000000000001 0.2759999999999998 Q 0.468 0.2759999999999998 0.40725 0.3487499999999998 Q 0.34650000000000003 0.4214999999999999 0.34650000000000003 0.5429999999999998 Q 0.34650000000000003 0.6659999999999998 0.40725 0.7387499999999998 Q 0.468 0.8114999999999999 0.5700000000000001 0.8114999999999999 Q 0.636 0.8114999999999999 0.68625 0.7799999999999998 Q 0.7365 0.7484999999999998 0.765 0.6884999999999999 L 1.0815000000000001 0.6884999999999999 Q 1.0425 0.8699999999999999 0.9075 0.9757499999999999 Q 0.7725 1.0815 0.5745 1.0815 Q 0.4185 1.0815 0.2985 1.0132499999999998 Q 0.1785 0.9449999999999998 0.11325 0.8227499999999999 Q 0.048 0.7004999999999999 0.048 0.5429999999999998 Q 0.048 0.3869999999999998 0.11325 0.2647499999999998 M 1.5179934082031252 0.8489999999999999 L 1.8464934082031252 0.8489999999999999 L 1.8464934082031252 1.0739999999999998 L 1.2239934082031252 1.0739999999999998 L 1.2239934082031252 0.016499999999999737 L 1.5179934082031252 0.016499999999999737 L 1.5179934082031252 0.8489999999999999 M 2.25753515625 0.2519999999999998 L 2.25753515625 0.4244999999999999 L 2.59503515625 0.4244999999999999 L 2.59503515625 0.6479999999999999 L 2.25753515625 0.6479999999999999 L 2.25753515625 0.8384999999999998 L 2.64003515625 0.8384999999999998 L 2.64003515625 1.0739999999999998 L 1.96353515625 1.0739999999999998 L 1.96353515625 0.016499999999999737 L 2.64003515625 0.016499999999999737 L 2.64003515625 0.2519999999999998 L 2.25753515625 0.2519999999999998 M 3.81749560546875 0.016499999999999737 L 3.45299560546875 1.0739999999999998 L 3.07649560546875 1.0739999999999998 L 2.7104956054687497 0.016499999999999737 L 3.02549560546875 0.016499999999999737 L 3.26549560546875 0.7799999999999998 L 3.50399560546875 0.016499999999999737 L 3.81749560546875 0.016499999999999737 M 4.206009521484375 0.2519999999999998 L 4.206009521484375 0.4244999999999999 L 4.543509521484375 0.4244999999999999 L 4.543509521484375 0.6479999999999999 L 4.206009521484375 0.6479999999999999 L 4.206009521484375 0.8384999999999998 L 4.588509521484375 0.8384999999999998 L 4.588509521484375 1.0739999999999998 L 3.912009521484375 1.0739999999999998 L 3.912009521484375 0.016499999999999737 L 4.588509521484375 0.016499999999999737 L 4.588509521484375 0.2519999999999998 L 4.206009521484375 0.2519999999999998 M 5.272469970703125 1.0739999999999998 L 5.062469970703125 0.6839999999999998 L 5.030969970703125 0.6839999999999998 L 5.030969970703125 1.0739999999999998 L 4.736969970703124 1.0739999999999998 L 4.736969970703124 0.016499999999999737 L 5.200469970703125 0.016499999999999737 Q 5.3279699707031245 0.016499999999999737 5.416469970703124 0.06074999999999986 Q 5.504969970703125 0.10499999999999987 5.549969970703125 0.1822499999999998 Q 5.594969970703125 0.25949999999999984 5.594969970703125 0.3554999999999998 Q 5.594969970703125 0.4634999999999998 5.535719970703124 0.5452499999999998 Q 5.476469970703125 0.6269999999999998 5.362469970703125 0.6614999999999998 L 5.600969970703125 1.0739999999999998 L 5.272469970703125 1.0739999999999998 M 5.030969970703125 0.4829999999999999 L 5.176469970703125 0.4829999999999999 Q 5.236469970703125 0.4829999999999999 5.266469970703125 0.4544999999999998 Q 5.296469970703125 0.4259999999999998 5.296469970703125 0.3719999999999998 Q 5.296469970703125 0.32099999999999984 5.265719970703125 0.29174999999999984 Q 5.2349699707031245 0.26249999999999984 5.176469970703125 0.26249999999999984 L 5.030969970703125 0.26249999999999984 L 5.030969970703125 0.4829999999999999 M 7.25545458984375 0.016499999999999737 L 7.25545458984375 1.0739999999999998 L 6.96145458984375 1.0739999999999998 L 6.96145458984375 0.4904999999999998 L 6.76195458984375 1.0739999999999998 L 6.51595458984375 1.0739999999999998 L 6.31495458984375 0.4859999999999999 L 6.31495458984375 1.0739999999999998 L 6.0209545898437495 1.0739999999999998 L 6.0209545898437495 0.016499999999999737 L 6.37645458984375 0.016499999999999737 L 6.64195458984375 0.7034999999999998 L 6.90145458984375 0.016499999999999737 L 7.25545458984375 0.016499999999999737 M 7.660450927734375 1.0147499999999998 Q 7.535950927734375 0.9449999999999998 7.463200927734375 0.8212499999999998 Q 7.390450927734375 0.6974999999999998 7.390450927734375 0.5414999999999999 Q 7.390450927734375 0.38549999999999984 7.463200927734375 0.2617499999999998 Q 7.535950927734375 0.1379999999999998 7.660450927734375 0.06899999999999973 Q 7.784950927734375 -2.220446049250313e-16 7.933450927734375 -2.220446049250313e-16 Q 8.083450927734376 -2.220446049250313e-16 8.207200927734375 0.06899999999999973 Q 8.330950927734374 0.1379999999999998 8.402950927734375 0.2617499999999998 Q 8.474950927734374 0.38549999999999984 8.474950927734374 0.5414999999999999 Q 8.474950927734374 0.6974999999999998 8.402950927734375 0.8212499999999998 Q 8.330950927734374 0.9449999999999998 8.206450927734375 1.0147499999999998 Q 8.081950927734376 1.0844999999999998 7.933450927734375 1.0844999999999998 Q 7.784950927734375 1.0844999999999998 7.660450927734375 1.0147499999999998 M 8.111200927734375 0.7379999999999998 Q 8.176450927734376 0.6644999999999999 8.176450927734376 0.5414999999999999 Q 8.176450927734376 0.41549999999999987 8.111200927734375 0.3427499999999998 Q 8.045950927734374 0.2699999999999998 7.933450927734375 0.2699999999999998 Q 7.819450927734375 0.2699999999999998 7.754950927734375 0.3427499999999998 Q 7.690450927734375 0.41549999999999987 7.690450927734375 0.5414999999999999 Q 7.690450927734375 0.6659999999999998 7.754950927734375 0.7387499999999998 Q 7.819450927734375 0.8114999999999999 7.933450927734375 0.8114999999999999 Q 8.045950927734374 0.8114999999999999 8.111200927734375 0.7379999999999998 M 9.638931884765626 0.016499999999999737 L 9.274431884765626 1.0739999999999998 L 8.897931884765626 1.0739999999999998 L 8.531931884765626 0.016499999999999737 L 8.846931884765626 0.016499999999999737 L 9.086931884765626 0.7799999999999998 L 9.325431884765626 0.016499999999999737 L 9.638931884765626 0.016499999999999737 M 10.027445800781251 0.016499999999999737 L 10.027445800781251 1.0739999999999998 L 9.73344580078125 1.0739999999999998 L 9.73344580078125 0.016499999999999737 L 10.027445800781251 0.016499999999999737 M 11.1779208984375 1.0739999999999998 L 10.883920898437502 1.0739999999999998 L 10.492420898437501 0.4829999999999999 L 10.492420898437501 1.0739999999999998 L 10.1984208984375 1.0739999999999998 L 10.1984208984375 0.016499999999999737 L 10.492420898437501 0.016499999999999737 L 10.883920898437502 0.6149999999999998 L 10.883920898437502 0.016499999999999737 L 11.1779208984375 0.016499999999999737 L 11.1779208984375 1.0739999999999998 M 12.023942871093752 0.3644999999999998 Q 11.99844287109375 0.3224999999999998 11.95419287109375 0.2999999999999998 Q 11.909942871093751 0.27749999999999986 11.849942871093752 0.27749999999999986 Q 11.738942871093752 0.27749999999999986 11.675192871093751 0.3494999999999998 Q 11.611442871093752 0.4214999999999999 11.611442871093752 0.5429999999999998 Q 11.611442871093752 0.6794999999999998 11.679692871093751 0.7507499999999998 Q 11.747942871093752 0.8219999999999998 11.878442871093752 0.8219999999999998 Q 12.032942871093752 0.8219999999999998 12.098942871093751 0.6824999999999999 L 11.80344287109375 0.6824999999999999 L 11.80344287109375 0.47099999999999986 L 12.352442871093752 0.47099999999999986 L 12.352442871093752 0.7559999999999998 Q 12.317942871093752 0.8399999999999999 12.251192871093751 0.9134999999999999 Q 12.18444287109375 0.9869999999999999 12.082442871093752 1.03425 Q 11.980442871093752 1.0815 11.849942871093752 1.0815 Q 11.690942871093752 1.0815 11.568692871093752 1.0132499999999998 Q 11.446442871093751 0.9449999999999998 11.379692871093752 0.8227499999999999 Q 11.312942871093751 0.7004999999999999 11.312942871093751 0.5429999999999998 Q 11.312942871093751 0.3869999999999998 11.379692871093752 0.2647499999999998 Q 11.446442871093751 0.14249999999999985 11.567942871093752 0.07424999999999982 Q 11.689442871093751 0.005999999999999783 11.848442871093752 0.005999999999999783 Q 12.04794287109375 0.005999999999999783 12.17844287109375 0.10199999999999987 Q 12.308942871093752 0.19799999999999984 12.340442871093751 0.3644999999999998 L 12.023942871093752 0.3644999999999998" fill="#000000" fill-rule="nonzero"></path></g><g><path d=" M 0.64275 1.4342249999999999 L 0.64275 1.9607249999999998 L 0.5145 1.9607249999999998 L 0.5145 1.6449749999999999 L 0.39675 1.9607249999999998 L 0.29325 1.9607249999999998 L 0.17475000000000002 1.6442249999999998 L 0.17475000000000002 1.9607249999999998 L 0.0465 1.9607249999999998 L 0.0465 1.4342249999999999 L 0.198 1.4342249999999999 L 0.34575 1.798725 L 0.492 1.4342249999999999 L 0.64275 1.4342249999999999 M 0.8478973388671875 1.9314749999999998 Q 0.7860223388671875 1.8969749999999999 0.7496473388671875 1.8350999999999997 Q 0.7132723388671875 1.7732249999999998 0.7132723388671875 1.6959749999999998 Q 0.7132723388671875 1.6187249999999997 0.7496473388671875 1.5572249999999999 Q 0.7860223388671875 1.4957249999999997 0.8478973388671875 1.4612249999999998 Q 0.9097723388671874 1.4267249999999998 0.9840223388671875 1.4267249999999998 Q 1.0582723388671875 1.4267249999999998 1.1201473388671874 1.4612249999999998 Q 1.1820223388671875 1.4957249999999997 1.2176473388671876 1.5572249999999999 Q 1.2532723388671876 1.6187249999999997 1.2532723388671876 1.6959749999999998 Q 1.2532723388671876 1.7732249999999998 1.2172723388671876 1.8350999999999997 Q 1.1812723388671875 1.8969749999999999 1.1197723388671874 1.9314749999999998 Q 1.0582723388671875 1.9659749999999998 0.9840223388671875 1.9659749999999998 Q 0.9097723388671874 1.9659749999999998 0.8478973388671875 1.9314749999999998 M 1.0848973388671874 1.8069749999999998 Q 1.1227723388671875 1.7649749999999997 1.1227723388671875 1.6959749999999998 Q 1.1227723388671875 1.6262249999999998 1.0848973388671874 1.5845999999999998 Q 1.0470223388671875 1.5429749999999998 0.9840223388671875 1.5429749999999998 Q 0.9202723388671875 1.5429749999999998 0.8823973388671875 1.5842249999999998 Q 0.8445223388671875 1.6254749999999998 0.8445223388671875 1.6959749999999998 Q 0.8445223388671875 1.7657249999999998 0.8823973388671875 1.8073499999999998 Q 0.9202723388671875 1.8489749999999998 0.9840223388671875 1.8489749999999998 Q 1.0470223388671875 1.8489749999999998 1.0848973388671874 1.8069749999999998 M 1.8187803955078126 1.4342249999999999 L 1.6320303955078126 1.9607249999999998 L 1.4715303955078125 1.9607249999999998 L 1.2847803955078125 1.4342249999999999 L 1.4212803955078126 1.4342249999999999 L 1.5517803955078124 1.8317249999999998 L 1.6830303955078125 1.4342249999999999 L 1.8187803955078126 1.4342249999999999 M 2.0002657470703125 1.5369749999999998 L 2.0002657470703125 1.6434749999999998 L 2.1720157470703123 1.6434749999999998 L 2.1720157470703123 1.7424749999999998 L 2.0002657470703125 1.7424749999999998 L 2.0002657470703125 1.8579749999999997 L 2.1945157470703123 1.8579749999999997 L 2.1945157470703123 1.9607249999999998 L 1.8720157470703125 1.9607249999999998 L 1.8720157470703125 1.4342249999999999 L 2.1945157470703123 1.4342249999999999 L 2.1945157470703123 1.5369749999999998 L 2.0002657470703125 1.5369749999999998 M 2.5496337890625 1.9314749999999998 Q 2.4877587890625 1.8969749999999999 2.4513837890625 1.8350999999999997 Q 2.4150087890625 1.7732249999999998 2.4150087890625 1.6959749999999998 Q 2.4150087890625 1.6187249999999997 2.4513837890625 1.5572249999999999 Q 2.4877587890625 1.4957249999999997 2.5496337890625 1.4612249999999998 Q 2.6115087890625 1.4267249999999998 2.6857587890625 1.4267249999999998 Q 2.7600087890625 1.4267249999999998 2.8218837890625 1.4612249999999998 Q 2.8837587890625 1.4957249999999997 2.9193837890625 1.5572249999999999 Q 2.9550087890625 1.6187249999999997 2.9550087890625 1.6959749999999998 Q 2.9550087890625 1.7732249999999998 2.9190087890625 1.8350999999999997 Q 2.8830087890625 1.8969749999999999 2.8215087890625 1.9314749999999998 Q 2.7600087890625 1.9659749999999998 2.6857587890625 1.9659749999999998 Q 2.6115087890625 1.9659749999999998 2.5496337890625 1.9314749999999998 M 2.7866337890625 1.8069749999999998 Q 2.8245087890625 1.7649749999999997 2.8245087890625 1.6959749999999998 Q 2.8245087890625 1.6262249999999998 2.7866337890625 1.5845999999999998 Q 2.7487587890625 1.5429749999999998 2.6857587890625 1.5429749999999998 Q 2.6220087890625 1.5429749999999998 2.5841337890625 1.5842249999999998 Q 2.5462587890625 1.6254749999999998 2.5462587890625 1.6959749999999998 Q 2.5462587890625 1.7657249999999998 2.5841337890625 1.8073499999999998 Q 2.6220087890625 1.8489749999999998 2.6857587890625 1.8489749999999998 Q 2.7487587890625 1.8489749999999998 2.7866337890625 1.8069749999999998 M 3.497266845703125 1.9607249999999998 L 3.369016845703125 1.9607249999999998 L 3.154516845703125 1.6359749999999997 L 3.154516845703125 1.9607249999999998 L 3.026266845703125 1.9607249999999998 L 3.026266845703125 1.4342249999999999 L 3.154516845703125 1.4342249999999999 L 3.369016845703125 1.7604749999999998 L 3.369016845703125 1.4342249999999999 L 3.497266845703125 1.4342249999999999 L 3.497266845703125 1.9607249999999998 M 4.1415087890625 1.7360999999999998 Q 4.1692587890625 1.7717249999999998 4.1692587890625 1.8174749999999997 Q 4.1692587890625 1.8834749999999998 4.1231337890625 1.9221 Q 4.0770087890625 1.9607249999999998 3.9945087890625 1.9607249999999998 L 3.7492587890625 1.9607249999999998 L 3.7492587890625 1.4342249999999999 L 3.9862587890625 1.4342249999999999 Q 4.0665087890625 1.4342249999999999 4.1118837890625 1.4709749999999997 Q 4.1572587890625 1.5077249999999998 4.1572587890625 1.570725 Q 4.1572587890625 1.617225 4.1328837890625 1.6479749999999997 Q 4.1085087890625 1.6787249999999998 4.0680087890625 1.6907249999999998 Q 4.1137587890625 1.700475 4.1415087890625 1.7360999999999998 M 3.8775087890625 1.6472249999999997 L 3.9615087890625 1.6472249999999997 Q 3.9930087890625 1.6472249999999997 4.0098837890625 1.6333499999999999 Q 4.0267587890625 1.6194749999999998 4.0267587890625 1.5924749999999999 Q 4.0267587890625 1.5654749999999997 4.0098837890625 1.5512249999999999 Q 3.9930087890625 1.5369749999999998 3.9615087890625 1.5369749999999998 L 3.8775087890625 1.5369749999999998 L 3.8775087890625 1.6472249999999997 M 4.0218837890625 1.8425999999999998 Q 4.0395087890625 1.827975 4.0395087890625 1.8002249999999997 Q 4.0395087890625 1.7724749999999998 4.0211337890625 1.7567249999999999 Q 4.0027587890625 1.7409749999999997 3.9705087890625 1.7409749999999997 L 3.8775087890625 1.7409749999999997 L 3.8775087890625 1.857225 L 3.9720087890625 1.857225 Q 4.0042587890625 1.857225 4.0218837890625 1.8425999999999998 M 4.369506225585938 1.4342249999999999 L 4.369506225585938 1.7492249999999998 Q 4.369506225585938 1.7964749999999998 4.392756225585938 1.821975 Q 4.416006225585938 1.8474749999999998 4.461006225585938 1.8474749999999998 Q 4.506006225585938 1.8474749999999998 4.530006225585938 1.821975 Q 4.554006225585938 1.7964749999999998 4.554006225585938 1.7492249999999998 L 4.554006225585938 1.4342249999999999 L 4.682256225585937 1.4342249999999999 L 4.682256225585937 1.7484749999999998 Q 4.682256225585937 1.8189749999999998 4.652256225585938 1.8677249999999999 Q 4.622256225585938 1.916475 4.5716312255859375 1.9412249999999998 Q 4.521006225585937 1.9659749999999998 4.458756225585938 1.9659749999999998 Q 4.396506225585938 1.9659749999999998 4.347381225585938 1.9415999999999998 Q 4.298256225585938 1.9172249999999997 4.269756225585938 1.8680999999999999 Q 4.241256225585937 1.8189749999999998 4.241256225585937 1.7484749999999998 L 4.241256225585937 1.4342249999999999 L 4.369506225585938 1.4342249999999999 M 5.11501904296875 1.4672249999999998 Q 5.17726904296875 1.500225 5.21139404296875 1.55985 Q 5.24551904296875 1.6194749999999998 5.24551904296875 1.6974749999999998 Q 5.24551904296875 1.7747249999999999 5.21139404296875 1.8347249999999997 Q 5.17726904296875 1.8947249999999998 5.11464404296875 1.927725 Q 5.05201904296875 1.9607249999999998 4.96951904296875 1.9607249999999998 L 4.77226904296875 1.9607249999999998 L 4.77226904296875 1.4342249999999999 L 4.96951904296875 1.4342249999999999 Q 5.05276904296875 1.4342249999999999 5.11501904296875 1.4672249999999998 M 5.07451904296875 1.809975 Q 5.11501904296875 1.770225 5.11501904296875 1.6974749999999998 Q 5.11501904296875 1.6247249999999998 5.07451904296875 1.5842249999999998 Q 5.03401904296875 1.5437249999999998 4.96126904296875 1.5437249999999998 L 4.90051904296875 1.5437249999999998 L 4.90051904296875 1.8497249999999998 L 4.96126904296875 1.8497249999999998 Q 5.03401904296875 1.8497249999999998 5.07451904296875 1.809975 M 5.667011352539062 1.6007249999999997 Q 5.652761352539063 1.5744749999999998 5.626136352539063 1.5605999999999998 Q 5.5995113525390625 1.546725 5.563511352539063 1.546725 Q 5.501261352539062 1.546725 5.463761352539063 1.5876 Q 5.426261352539062 1.628475 5.426261352539062 1.6967249999999998 Q 5.426261352539062 1.769475 5.465636352539063 1.81035 Q 5.5050113525390625 1.851225 5.574011352539062 1.851225 Q 5.6212613525390625 1.851225 5.653886352539063 1.8272249999999999 Q 5.686511352539062 1.8032249999999999 5.701511352539063 1.758225 L 5.538761352539063 1.758225 L 5.538761352539063 1.663725 L 5.817761352539063 1.663725 L 5.817761352539063 1.7829749999999998 Q 5.803511352539062 1.8309749999999998 5.769386352539063 1.8722249999999998 Q 5.735261352539062 1.9134749999999998 5.682761352539062 1.938975 Q 5.630261352539063 1.9644749999999997 5.564261352539063 1.9644749999999997 Q 5.486261352539063 1.9644749999999997 5.425136352539062 1.9303499999999998 Q 5.3640113525390625 1.8962249999999998 5.329886352539062 1.8354749999999997 Q 5.2957613525390625 1.7747249999999999 5.2957613525390625 1.6967249999999998 Q 5.2957613525390625 1.6187249999999997 5.329886352539062 1.5575999999999999 Q 5.3640113525390625 1.4964749999999998 5.424761352539062 1.4623499999999998 Q 5.485511352539063 1.4282249999999999 5.563511352539063 1.4282249999999999 Q 5.658011352539063 1.4282249999999999 5.722886352539063 1.4739749999999998 Q 5.7877613525390625 1.5197249999999998 5.8087613525390625 1.6007249999999997 L 5.667011352539062 1.6007249999999997 M 6.017279296875 1.5369749999999998 L 6.017279296875 1.6434749999999998 L 6.189029296875 1.6434749999999998 L 6.189029296875 1.7424749999999998 L 6.017279296875 1.7424749999999998 L 6.017279296875 1.8579749999999997 L 6.211529296875 1.8579749999999997 L 6.211529296875 1.9607249999999998 L 5.889029296875 1.9607249999999998 L 5.889029296875 1.4342249999999999 L 6.211529296875 1.4342249999999999 L 6.211529296875 1.5369749999999998 L 6.017279296875 1.5369749999999998 M 6.673541015625 1.4342249999999999 L 6.673541015625 1.5369749999999998 L 6.534041015625 1.5369749999999998 L 6.534041015625 1.9607249999999998 L 6.405791015625 1.9607249999999998 L 6.405791015625 1.5369749999999998 L 6.266291015625 1.5369749999999998 L 6.266291015625 1.4342249999999999 L 6.673541015625 1.4342249999999999" fill="#ff0000" fill-rule="nonzero"></path></g></g><defs><clipPath id="SvgjsClipPath59136"><path d=" M -3.936402250380802 -1.0760632288284202 h 3.536402250380802 v 4.1128514576568405 h -3.536402250380802 Z"></path></clipPath><clipPath id="SvgjsClipPath59134acd6b3f3-9503-4522-a12f-67f857c9480f"><path d=" M -3.936402250380802 -1.0760632288284202 L -0.3999999999999999 -1.0760632288284202 L -0.3999999999999999 3.0367882288284203 L -3.936402250380802 3.0367882288284203 Z"></path></clipPath></defs></svg>